<svg xmlns="http://www.w3.org/2000/svg" version="1.1" xmlns:xlink="http://www.w3.org/1999/xlink" viewBox="0 0 200 200"><rect width="200" height="200" fill="url('#gradient')"></rect><defs><linearGradient id="gradient" gradientTransform="rotate(45 0.5 0.5)"><stop offset="0%" stop-color="#91c9b8"></stop><stop offset="100%" stop-color="#6a7564"></stop></linearGradient></defs><g><g fill="#c4345e" transform="matrix(1.6050156739811912,0,0,1.6050156739811912,9.436208869596257,111.40801108668217)" stroke="#ce646a" stroke-width="2"><path d="M12.24-14.22L12.24-11.57L7.97-11.57L7.97 0L4.54 0L4.54-11.57L0.35-11.57L0.35-14.22L12.24-14.22ZM25.45-7.47L25.45-6.82Q25.45-4.74 24.68-3.13Q23.91-1.53 22.49-0.67Q21.06 0.20 19.25 0.20Q17.43 0.20 16.03-0.64Q14.62-1.47 13.83-3.03Q13.05-4.58 13.01-6.59L13.01-6.59L13.01-7.39Q13.01-9.48 13.77-11.08Q14.54-12.68 15.97-13.54Q17.40-14.41 19.23-14.41L19.23-14.41Q21.04-14.41 22.45-13.55Q23.87-12.70 24.65-11.11Q25.44-9.52 25.45-7.47L25.45-7.47ZM21.96-6.76L21.96-7.41Q21.96-9.53 21.25-10.63Q20.55-11.73 19.23-11.73L19.23-11.73Q16.65-11.73 16.50-7.86L16.50-7.86L16.49-6.82Q16.49-4.73 17.19-3.60Q17.88-2.48 19.25-2.48L19.25-2.48Q20.55-2.48 21.25-3.58Q21.95-4.69 21.96-6.76L21.96-6.76ZM33.50-7.40L33.50-4.85L27.63-4.85L27.63-7.40L33.50-7.40ZM40.89 0L36.21 0L36.21-14.22L40.79-14.22Q42.68-14.22 44.18-13.36Q45.68-12.51 46.53-10.95Q47.37-9.39 47.38-7.46L47.38-7.46L47.38-6.81Q47.38-4.85 46.56-3.31Q45.73-1.76 44.23-0.88Q42.73-0.01 40.89 0L40.89 0ZM40.79-11.57L39.64-11.57L39.64-2.64L40.83-2.64Q42.30-2.64 43.10-3.69Q43.89-4.74 43.89-6.81L43.89-6.81L43.89-7.42Q43.89-9.48 43.10-10.53Q42.30-11.57 40.79-11.57L40.79-11.57ZM61.18-7.47L61.18-6.82Q61.18-4.74 60.41-3.13Q59.64-1.53 58.22-0.67Q56.80 0.20 54.98 0.20Q53.16 0.20 51.76-0.64Q50.35-1.47 49.57-3.03Q48.78-4.58 48.74-6.59L48.74-6.59L48.74-7.39Q48.74-9.48 49.51-11.08Q50.27-12.68 51.70-13.54Q53.13-14.41 54.96-14.41L54.96-14.41Q56.77-14.41 58.18-13.55Q59.60-12.70 60.39-11.11Q61.17-9.52 61.18-7.47L61.18-7.47ZM57.70-6.76L57.70-7.41Q57.70-9.53 56.99-10.63Q56.28-11.73 54.96-11.73L54.96-11.73Q52.38-11.73 52.24-7.86L52.24-7.86L52.23-6.82Q52.23-4.73 52.92-3.60Q53.61-2.48 54.98-2.48L54.98-2.48Q56.28-2.48 56.98-3.58Q57.69-4.69 57.70-6.76L57.70-6.76ZM69.23-7.40L69.23-4.85L63.36-4.85L63.36-7.40L69.23-7.40ZM75.37-14.22L75.37-2.64L81.34-2.64L81.34 0L71.94 0L71.94-14.22L75.37-14.22ZM86.44-14.22L86.44 0L83.02 0L83.02-14.22L86.44-14.22ZM96.15-3.78L96.15-3.78Q96.15-4.53 95.62-4.95Q95.09-5.37 93.75-5.82Q92.41-6.27 91.56-6.69L91.56-6.69Q88.80-8.05 88.80-10.42L88.80-10.42Q88.80-11.60 89.49-12.50Q90.18-13.41 91.44-13.91Q92.70-14.41 94.27-14.41L94.27-14.41Q95.80-14.41 97.02-13.87Q98.23-13.32 98.91-12.31Q99.58-11.30 99.58-10L99.58-10L96.16-10Q96.16-10.87 95.63-11.35Q95.10-11.83 94.19-11.83L94.19-11.83Q93.27-11.83 92.74-11.42Q92.21-11.02 92.21-10.39L92.21-10.39Q92.21-9.84 92.79-9.40Q93.38-8.96 94.85-8.48Q96.33-8.01 97.28-7.46L97.28-7.46Q99.58-6.13 99.58-3.80L99.58-3.80Q99.58-1.93 98.17-0.87Q96.77 0.20 94.32 0.20L94.32 0.20Q92.59 0.20 91.19-0.42Q89.79-1.04 89.08-2.12Q88.37-3.20 88.37-4.61L88.37-4.61L91.81-4.61Q91.81-3.47 92.40-2.92Q92.99-2.38 94.32-2.38L94.32-2.38Q95.17-2.38 95.66-2.75Q96.15-3.12 96.15-3.78ZM112.50-14.22L112.50-11.57L108.23-11.57L108.23 0L104.80 0L104.80-11.57L100.62-11.57L100.62-14.22L112.50-14.22Z"></path></g></g></svg>